<mxfile host="app.diagrams.net" modified="2023-10-26T05:02:10.683Z" agent="Mozilla/5.0 (Windows NT 10.0; Win64; x64) AppleWebKit/537.36 (KHTML, like Gecko) Chrome/118.0.0.0 Safari/537.36" etag="hTHUPdPQDsE_soXc2E7g" version="22.0.8" type="device">
  <diagram name="Page-1" id="9WfGIjPdpWZjndMDunGT">
    <mxGraphModel dx="954" dy="610" grid="1" gridSize="10" guides="1" tooltips="1" connect="1" arrows="1" fold="1" page="1" pageScale="1" pageWidth="850" pageHeight="1100" math="0" shadow="0">
      <root>
        <mxCell id="0" />
        <mxCell id="1" parent="0" />
        <mxCell id="umPAzeY00VTQTeSbYBma-43" value="" style="verticalLabelPosition=bottom;shadow=0;dashed=0;align=center;html=1;verticalAlign=top;strokeWidth=1;shape=mxgraph.mockup.misc.map;fillColor=#f5f5f5;gradientColor=#b3b3b3;strokeColor=#666666;" vertex="1" parent="1">
          <mxGeometry x="50" y="425" width="820" height="250" as="geometry" />
        </mxCell>
        <mxCell id="umPAzeY00VTQTeSbYBma-15" value="" style="verticalLabelPosition=bottom;verticalAlign=top;html=1;shape=mxgraph.basic.cone" vertex="1" parent="1">
          <mxGeometry x="94" y="300" width="300" height="300" as="geometry" />
        </mxCell>
        <mxCell id="umPAzeY00VTQTeSbYBma-19" style="edgeStyle=orthogonalEdgeStyle;rounded=0;orthogonalLoop=1;jettySize=auto;html=1;exitX=1;exitY=0.5;exitDx=0;exitDy=0;entryX=0;entryY=0.5;entryDx=0;entryDy=0;endArrow=none;endFill=0;dashed=1;dashPattern=12 12;" edge="1" parent="1" source="umPAzeY00VTQTeSbYBma-1" target="umPAzeY00VTQTeSbYBma-2">
          <mxGeometry relative="1" as="geometry" />
        </mxCell>
        <mxCell id="umPAzeY00VTQTeSbYBma-1" value="" style="shape=image;html=1;verticalAlign=top;verticalLabelPosition=bottom;labelBackgroundColor=#ffffff;imageAspect=0;aspect=fixed;image=https://cdn1.iconfinder.com/data/icons/vehicle-37/24/Drone-128.png" vertex="1" parent="1">
          <mxGeometry x="180" y="200" width="128" height="128" as="geometry" />
        </mxCell>
        <mxCell id="umPAzeY00VTQTeSbYBma-2" value="" style="shape=image;html=1;verticalAlign=top;verticalLabelPosition=bottom;labelBackgroundColor=#ffffff;imageAspect=0;aspect=fixed;image=https://cdn1.iconfinder.com/data/icons/vehicle-37/24/Drone-128.png" vertex="1" parent="1">
          <mxGeometry x="600" y="200" width="128" height="128" as="geometry" />
        </mxCell>
        <mxCell id="umPAzeY00VTQTeSbYBma-4" value="" style="sketch=0;aspect=fixed;pointerEvents=1;shadow=0;dashed=0;html=1;strokeColor=none;labelPosition=center;verticalLabelPosition=bottom;verticalAlign=top;align=center;fillColor=#3B3B3B;shape=mxgraph.mscae.enterprise.android_phone" vertex="1" parent="1">
          <mxGeometry x="171" y="475" width="36" height="60" as="geometry" />
        </mxCell>
        <mxCell id="umPAzeY00VTQTeSbYBma-5" value="" style="sketch=0;aspect=fixed;pointerEvents=1;shadow=0;dashed=0;html=1;strokeColor=none;labelPosition=center;verticalLabelPosition=bottom;verticalAlign=top;align=center;fillColor=#3B3B3B;shape=mxgraph.mscae.enterprise.android_phone" vertex="1" parent="1">
          <mxGeometry x="225" y="425" width="36" height="60" as="geometry" />
        </mxCell>
        <mxCell id="umPAzeY00VTQTeSbYBma-6" value="" style="sketch=0;aspect=fixed;pointerEvents=1;shadow=0;dashed=0;html=1;strokeColor=none;labelPosition=center;verticalLabelPosition=bottom;verticalAlign=top;align=center;fillColor=#3B3B3B;shape=mxgraph.mscae.enterprise.android_phone" vertex="1" parent="1">
          <mxGeometry x="281" y="475" width="36" height="60" as="geometry" />
        </mxCell>
        <mxCell id="umPAzeY00VTQTeSbYBma-16" style="rounded=0;orthogonalLoop=1;jettySize=auto;html=1;exitX=1;exitY=0.5;exitDx=0;exitDy=0;exitPerimeter=0;entryX=0.5;entryY=1;entryDx=0;entryDy=0;entryPerimeter=0;dashed=1;endArrow=none;endFill=0;" edge="1" parent="1" source="umPAzeY00VTQTeSbYBma-4" target="umPAzeY00VTQTeSbYBma-5">
          <mxGeometry relative="1" as="geometry" />
        </mxCell>
        <mxCell id="umPAzeY00VTQTeSbYBma-17" style="rounded=0;orthogonalLoop=1;jettySize=auto;html=1;exitX=1;exitY=0.5;exitDx=0;exitDy=0;exitPerimeter=0;entryX=0;entryY=0.5;entryDx=0;entryDy=0;entryPerimeter=0;endArrow=none;endFill=0;dashed=1;" edge="1" parent="1" source="umPAzeY00VTQTeSbYBma-4" target="umPAzeY00VTQTeSbYBma-6">
          <mxGeometry relative="1" as="geometry" />
        </mxCell>
        <mxCell id="umPAzeY00VTQTeSbYBma-18" style="rounded=0;orthogonalLoop=1;jettySize=auto;html=1;exitX=0.5;exitY=1;exitDx=0;exitDy=0;exitPerimeter=0;entryX=0;entryY=0.5;entryDx=0;entryDy=0;entryPerimeter=0;dashed=1;endArrow=none;endFill=0;" edge="1" parent="1" source="umPAzeY00VTQTeSbYBma-5" target="umPAzeY00VTQTeSbYBma-6">
          <mxGeometry relative="1" as="geometry" />
        </mxCell>
        <mxCell id="umPAzeY00VTQTeSbYBma-34" value="" style="verticalLabelPosition=bottom;verticalAlign=top;html=1;shape=mxgraph.basic.cone" vertex="1" parent="1">
          <mxGeometry x="514" y="300" width="300" height="300" as="geometry" />
        </mxCell>
        <mxCell id="umPAzeY00VTQTeSbYBma-35" value="" style="sketch=0;aspect=fixed;pointerEvents=1;shadow=0;dashed=0;html=1;strokeColor=none;labelPosition=center;verticalLabelPosition=bottom;verticalAlign=top;align=center;fillColor=#3B3B3B;shape=mxgraph.mscae.enterprise.android_phone" vertex="1" parent="1">
          <mxGeometry x="591" y="475" width="36" height="60" as="geometry" />
        </mxCell>
        <mxCell id="umPAzeY00VTQTeSbYBma-36" value="" style="sketch=0;aspect=fixed;pointerEvents=1;shadow=0;dashed=0;html=1;strokeColor=none;labelPosition=center;verticalLabelPosition=bottom;verticalAlign=top;align=center;fillColor=#3B3B3B;shape=mxgraph.mscae.enterprise.android_phone" vertex="1" parent="1">
          <mxGeometry x="645" y="425" width="36" height="60" as="geometry" />
        </mxCell>
        <mxCell id="umPAzeY00VTQTeSbYBma-37" value="" style="sketch=0;aspect=fixed;pointerEvents=1;shadow=0;dashed=0;html=1;strokeColor=none;labelPosition=center;verticalLabelPosition=bottom;verticalAlign=top;align=center;fillColor=#3B3B3B;shape=mxgraph.mscae.enterprise.android_phone" vertex="1" parent="1">
          <mxGeometry x="701" y="475" width="36" height="60" as="geometry" />
        </mxCell>
        <mxCell id="umPAzeY00VTQTeSbYBma-38" style="rounded=0;orthogonalLoop=1;jettySize=auto;html=1;exitX=1;exitY=0.5;exitDx=0;exitDy=0;exitPerimeter=0;entryX=0.5;entryY=1;entryDx=0;entryDy=0;entryPerimeter=0;dashed=1;endArrow=none;endFill=0;" edge="1" parent="1" source="umPAzeY00VTQTeSbYBma-35" target="umPAzeY00VTQTeSbYBma-36">
          <mxGeometry relative="1" as="geometry" />
        </mxCell>
        <mxCell id="umPAzeY00VTQTeSbYBma-39" style="rounded=0;orthogonalLoop=1;jettySize=auto;html=1;exitX=1;exitY=0.5;exitDx=0;exitDy=0;exitPerimeter=0;entryX=0;entryY=0.5;entryDx=0;entryDy=0;entryPerimeter=0;endArrow=none;endFill=0;dashed=1;" edge="1" parent="1" source="umPAzeY00VTQTeSbYBma-35" target="umPAzeY00VTQTeSbYBma-37">
          <mxGeometry relative="1" as="geometry" />
        </mxCell>
        <mxCell id="umPAzeY00VTQTeSbYBma-40" style="rounded=0;orthogonalLoop=1;jettySize=auto;html=1;exitX=0.5;exitY=1;exitDx=0;exitDy=0;exitPerimeter=0;entryX=0;entryY=0.5;entryDx=0;entryDy=0;entryPerimeter=0;dashed=1;endArrow=none;endFill=0;" edge="1" parent="1" source="umPAzeY00VTQTeSbYBma-36" target="umPAzeY00VTQTeSbYBma-37">
          <mxGeometry relative="1" as="geometry" />
        </mxCell>
      </root>
    </mxGraphModel>
  </diagram>
</mxfile>
